<svg width="103" height="34" viewBox="0 0 103 34" fill="none" xmlns="http://www.w3.org/2000/svg">
<path d="M11.058 2.256C11.152 1.927 11.34 0.516999 11.199 0H13.502L23.607 32.994H21.304L17.967 22.09L17.826 21.62L11.716 1.692L5.982 21.62L5.7 22.701C4.525 26.743 3.115 31.631 3.914 32.806V33.041H1V32.806C2.175 31.772 3.397 28.764 5.089 22.936L11.058 2.256Z" fill="white"/>
<path d="M16.9103 10.1068L13.3528 15.7009L11.3548 12.7863L2.72904 0H0L11.3548 16.8291V33H13.6452V16.1239L17.2027 10.5769C20.7602 5.02991 23.4893 1.69231 25 0.235043V0H21.9786V0.235043C21.8324 2.35043 19.347 6.25214 17.3489 9.40171L16.9103 10.1068Z" fill="white"/>
<path d="M43.7976 4.82689C44.0166 4.42465 44.2429 4.00632 44.4766 3.5719C44.7248 3.12139 44.9438 2.68697 45.1337 2.26864C45.3381 1.85031 45.506 1.45611 45.6374 1.08605C45.7835 0.715989 45.8638 0.394196 45.8784 0.120672V0H47.2364V0.120672C46.9005 0.490734 46.4333 1.11018 45.8346 1.97903C45.2359 2.84786 44.535 3.99827 43.7319 5.43025L42.1329 8.27812V16.9424H41.1035V8.64013L36 0H37.2266L41.1035 6.56457L42.0015 8.06091L43.6004 5.18891L43.7976 4.82689Z" fill="white"/>
<path d="M42.2139 16.9424L47.2364 32.9208H46.0917L44.4331 27.6402H38.4061L38.336 27.9361C38.1959 28.4216 38.0479 28.9224 37.8922 29.4383C37.752 29.9542 37.6274 30.4398 37.5184 30.895C37.425 31.3502 37.3627 31.7524 37.3315 32.1014C37.316 32.4504 37.3549 32.6931 37.4483 32.8297V32.9435H36V32.8297C36.2959 32.5718 36.5996 32.071 36.9111 31.3275C37.2381 30.5688 37.6119 29.4762 38.0324 28.0499L40.9991 18.0349C41.0147 17.9894 41.0303 17.9211 41.0459 17.8301C41.0614 17.739 41.0692 17.6404 41.0692 17.5342C41.0848 17.4128 41.0926 17.299 41.0926 17.1928C41.0926 17.0865 41.0848 17.0031 41.0692 16.9424H42.2139ZM44.363 27.4125L41.3262 17.7618L38.4762 27.4125H44.363Z" fill="white"/>
<path d="M56.3004 0.847118C57.2118 0.847118 58.067 1.02282 58.866 1.37421C59.6776 1.72561 60.3829 2.20251 60.9822 2.80491C61.5815 3.4073 62.0559 4.11637 62.4055 4.93212C62.7551 5.73531 62.9299 6.59498 62.9299 7.51112C62.9299 8.42727 62.7551 9.29321 62.4055 10.109C62.0559 10.9121 61.5815 11.6149 60.9822 12.2173C60.3829 12.8197 59.6776 13.2966 58.866 13.648C58.067 13.9994 57.2118 14.1751 56.3004 14.1751C55.3765 14.1751 54.5088 13.9994 53.6973 13.648C52.8983 13.2966 52.1991 12.8197 51.5998 12.2173C51.0006 11.6149 50.5261 10.9121 50.1766 10.109C49.8395 9.29321 49.6709 8.42727 49.6709 7.51112C49.6709 6.59498 49.8395 5.73531 50.1766 4.93212C50.5261 4.11637 51.0006 3.4073 51.5998 2.80491C52.1991 2.20251 52.8983 1.72561 53.6973 1.37421C54.5088 1.02282 55.3765 0.847118 56.3004 0.847118ZM56.3004 1.05419C55.4389 1.05419 54.6586 1.24244 53.9595 1.61894C53.2603 1.98289 52.6673 2.47233 52.1804 3.08728C51.6935 3.68967 51.3127 4.37992 51.038 5.15801C50.7758 5.92356 50.6448 6.70793 50.6448 7.51112C50.6448 8.31432 50.7758 9.10496 51.038 9.88306C51.3127 10.6486 51.6935 11.3388 52.1804 11.9538C52.6673 12.5562 53.2603 13.0456 53.9595 13.4221C54.6586 13.7861 55.4389 13.9681 56.3004 13.9681C57.1619 13.9681 57.9359 13.7861 58.6226 13.4221C59.3217 13.0456 59.9148 12.5562 60.4017 11.9538C60.9011 11.3388 61.2819 10.6486 61.544 9.88306C61.8062 9.10496 61.9373 8.31432 61.9373 7.51112C61.9373 6.70793 61.8062 5.92356 61.544 5.15801C61.2819 4.37992 60.9011 3.68967 60.4017 3.08728C59.9148 2.47233 59.3217 1.98289 58.6226 1.61894C57.9359 1.24244 57.1619 1.05419 56.3004 1.05419Z" fill="white"/>
<path d="M72.8474 3.74615C72.81 3.09355 72.7413 2.57273 72.6414 2.18368C72.554 1.78209 72.4604 1.38677 72.3605 0.997718V0.903593H73.5403V0.997718C73.4405 1.38677 73.3468 1.78209 73.2594 2.18368C73.172 2.57273 73.1034 3.09355 73.0534 3.74615V8.65944C73.0534 9.43754 72.991 10.1717 72.8662 10.8619C72.7413 11.5522 72.5166 12.1609 72.192 12.688C71.8674 13.2025 71.4179 13.6104 70.8436 13.9116C70.2693 14.2128 69.5265 14.3571 68.6151 14.3446C67.7411 14.332 67.0108 14.1626 66.424 13.8363C65.8497 13.4974 65.3815 13.0519 65.0194 12.4997C64.6698 11.9475 64.4201 11.3137 64.2703 10.5984C64.1205 9.87051 64.0456 9.09869 64.0456 8.28294V0.903593H64.9258V8.28294C64.9258 8.94809 64.9632 9.61323 65.0381 10.2784C65.1255 10.9435 65.3003 11.5459 65.5625 12.0856C65.8247 12.6252 66.193 13.0707 66.6674 13.4221C67.1543 13.761 67.8035 13.9367 68.6151 13.9492C69.3891 13.9492 70.0446 13.8237 70.5814 13.5727C71.1183 13.3092 71.5552 12.9452 71.8923 12.4809C72.2294 12.004 72.4729 11.4455 72.6227 10.8055C72.7725 10.1529 72.8474 9.43754 72.8474 8.65944V3.74615Z" fill="white"/>
<path d="M75.9446 10.8808C75.8073 11.4079 75.801 11.8659 75.9259 12.255C76.0507 12.644 76.2567 12.9703 76.5439 13.2339C76.8435 13.4849 77.1993 13.6794 77.6113 13.8175C78.0358 13.943 78.4728 14.012 78.9222 14.0245C79.3842 14.0245 79.8399 13.9743 80.2893 13.8739C80.7388 13.761 81.1383 13.5916 81.4879 13.3657C81.8499 13.1398 82.1371 12.8574 82.3493 12.5185C82.5616 12.1797 82.6615 11.7906 82.649 11.3514C82.624 10.6988 82.4243 10.1529 82.0497 9.71363C81.6752 9.27439 81.207 8.88534 80.6452 8.54649C80.0833 8.20764 79.4778 7.8939 78.8286 7.60525C78.1919 7.30405 77.5926 6.98403 77.0308 6.64518C76.469 6.29378 75.9945 5.89218 75.6075 5.44039C75.2205 4.98859 75.0082 4.43012 74.9708 3.76497C74.9458 3.35083 75.027 2.9555 75.2142 2.57901C75.414 2.20251 75.6887 1.87621 76.0382 1.60011C76.4003 1.32402 76.8373 1.11067 77.3492 0.960067C77.861 0.796919 78.4291 0.727895 79.0533 0.752994C79.4778 0.765544 79.8649 0.815744 80.2144 0.903593C80.564 0.978893 80.8886 1.09184 81.1883 1.24244C81.4879 1.39304 81.775 1.58756 82.0497 1.82601C82.3244 2.05191 82.6053 2.32173 82.8924 2.63548L82.2744 3.29435L82.1995 3.21905C82.1746 2.9053 82.0497 2.61038 81.825 2.33428C81.6003 2.05819 81.3318 1.81974 81.0197 1.61894C80.7076 1.41814 80.3705 1.26127 80.0084 1.14832C79.6589 1.02282 79.3405 0.953792 79.0533 0.941243C78.529 0.928693 78.0545 0.991442 77.6301 1.12949C77.2056 1.26754 76.8498 1.46206 76.5626 1.71306C76.2879 1.96406 76.0819 2.25898 75.9446 2.59783C75.8198 2.93668 75.7885 3.28808 75.851 3.65202C75.9508 4.22932 76.213 4.71877 76.6375 5.12036C77.0745 5.50941 77.5864 5.86081 78.1732 6.17456C78.7599 6.48831 79.3717 6.79578 80.0084 7.09698C80.6576 7.38562 81.2444 7.72447 81.7688 8.11352C82.3056 8.49002 82.7301 8.94181 83.0423 9.46891C83.3669 9.99601 83.4917 10.6486 83.4168 11.4267C83.3669 11.9161 83.2046 12.3428 82.9299 12.7068C82.6552 13.0707 82.2994 13.3719 81.8624 13.6104C81.4379 13.8363 80.9635 14.0057 80.4392 14.1187C79.9148 14.2191 79.3779 14.2567 78.8286 14.2316C78.2918 14.2065 77.7674 14.1124 77.2555 13.9492C76.7436 13.7861 76.2942 13.5539 75.9072 13.2527C75.5201 12.9515 75.2142 12.575 74.9895 12.1232C74.7648 11.6714 74.6649 11.1443 74.6899 10.5419L75.9446 10.8808Z" fill="white"/>
<path d="M93.367 3.74615C93.3295 3.09355 93.2609 2.57273 93.161 2.18368C93.0736 1.78209 92.98 1.38677 92.8801 0.997718V0.903593H94.0599V0.997718C93.96 1.38677 93.8664 1.78209 93.779 2.18368C93.6916 2.57273 93.6229 3.09355 93.573 3.74615V8.65944C93.573 9.43754 93.5106 10.1717 93.3857 10.8619C93.2609 11.5522 93.0361 12.1609 92.7115 12.688C92.3869 13.2025 91.9375 13.6104 91.3632 13.9116C90.7889 14.2128 90.046 14.3571 89.1346 14.3446C88.2607 14.332 87.5303 14.1626 86.9435 13.8363C86.3692 13.4974 85.901 13.0519 85.539 12.4997C85.1894 11.9475 84.9397 11.3137 84.7899 10.5984C84.6401 9.87051 84.5652 9.09869 84.5652 8.28294V0.903593H85.4453V8.28294C85.4453 8.94809 85.4828 9.61323 85.5577 10.2784C85.6451 10.9435 85.8199 11.5459 86.0821 12.0856C86.3443 12.6252 86.7126 13.0707 87.187 13.4221C87.6739 13.761 88.3231 13.9367 89.1346 13.9492C89.9087 13.9492 90.5641 13.8237 91.101 13.5727C91.6378 13.3092 92.0748 12.9452 92.4119 12.4809C92.749 12.004 92.9925 11.4455 93.1423 10.8055C93.2921 10.1529 93.367 9.43754 93.367 8.65944V3.74615Z" fill="white"/>
<path d="M97.7376 7.00285C98.3868 6.9652 98.905 6.90245 99.292 6.8146C99.6915 6.7142 100.085 6.6138 100.472 6.5134H100.584V7.69937H100.472C100.085 7.59897 99.6915 7.50485 99.292 7.417C98.905 7.32915 98.3868 7.26013 97.7376 7.20993H96.0709V14.1187H95.1907V0.903593H102.831L103 1.88249L102.906 1.90131C102.582 1.70051 102.182 1.54991 101.708 1.44951C101.246 1.33657 100.722 1.25499 100.135 1.20479C99.5604 1.15459 98.9299 1.12322 98.2433 1.11067C97.5566 1.09812 96.8325 1.09184 96.0709 1.09184V7.00285H97.7376Z" fill="white"/>
<path d="M52.5362 32.9247H49.6709V19.7096H51.8058C52.2803 19.7096 52.7859 19.7347 53.3228 19.7849C53.8721 19.8226 54.3715 19.9355 54.8209 20.1238C55.2829 20.2995 55.6637 20.5693 55.9633 20.9333C56.2629 21.2847 56.4128 21.7741 56.4128 22.4016C56.4128 22.8032 56.3753 23.1483 56.3004 23.437C56.238 23.7131 56.1443 23.9515 56.0195 24.1523C55.8946 24.3531 55.7448 24.5288 55.57 24.6794C55.4077 24.8175 55.2267 24.943 55.0269 25.0559C54.8522 25.1563 54.6711 25.2379 54.4838 25.3006C54.2966 25.3634 54.1031 25.4198 53.9033 25.47C54.54 25.47 55.1331 25.5202 55.6824 25.6206C56.2317 25.7085 56.7062 25.8905 57.1057 26.1666C57.5177 26.4427 57.836 26.8254 58.0608 27.3149C58.298 27.7918 58.4166 28.4193 58.4166 29.1974C58.4166 29.9755 58.2543 30.6092 57.9297 31.0987C57.6051 31.5756 57.1681 31.9521 56.6188 32.2282C56.0819 32.5043 55.4577 32.6925 54.746 32.7929C54.0344 32.8808 53.2978 32.9247 52.5362 32.9247ZM52.5362 32.7365C52.6611 32.7365 52.8733 32.7302 53.1729 32.7176C53.4726 32.7051 53.8034 32.6674 54.1655 32.6047C54.54 32.5419 54.9271 32.4415 55.3266 32.3035C55.7261 32.1654 56.0882 31.9646 56.4128 31.7011C56.7374 31.4375 57.0058 31.105 57.218 30.7034C57.4303 30.2892 57.5364 29.7872 57.5364 29.1974C57.5364 28.3314 57.3928 27.66 57.1057 27.1831C56.831 26.7062 56.4565 26.3611 55.982 26.1477C55.5201 25.9218 54.9895 25.7963 54.3902 25.7712C53.7909 25.7336 53.1729 25.7148 52.5362 25.7148H50.5511V32.7365H52.5362ZM50.5511 25.5077H52.3864C52.7485 25.4951 53.123 25.4638 53.51 25.4136C53.8971 25.3508 54.2466 25.2065 54.5588 24.9806C54.8334 24.7673 55.0519 24.4723 55.2142 24.0958C55.3765 23.7193 55.4639 23.2236 55.4764 22.6087C55.4889 22.1318 55.4202 21.7302 55.2704 21.4039C55.1331 21.0776 54.9395 20.814 54.6898 20.6132C54.4402 20.4124 54.1468 20.2618 53.8097 20.1614C53.4726 20.061 53.1168 19.992 52.7422 19.9544C52.3801 19.9167 52.0056 19.8979 51.6186 19.8979C51.244 19.8979 50.8882 19.8979 50.5511 19.8979V25.5077Z" fill="white"/>
<path d="M63.4232 25.8277C64.0599 25.7901 64.5781 25.7273 64.9776 25.6395C65.3771 25.5391 65.7704 25.4387 66.1574 25.3383H66.251V26.5242H66.1574C65.7704 26.4238 65.3771 26.3297 64.9776 26.2419C64.5781 26.154 64.0599 26.085 63.4232 26.0348H61.7378V32.7553C62.5118 32.7553 63.2422 32.749 63.9288 32.7365C64.6155 32.7239 65.246 32.6925 65.8203 32.6423C66.4071 32.5921 66.9315 32.5168 67.3934 32.4164C67.8553 32.3035 68.2486 32.1466 68.5732 31.9458L68.6669 31.9646L68.4983 32.9435H60.8576V19.7285H68.4983L68.6669 20.7074L68.5732 20.7262C68.2486 20.5254 67.8553 20.3748 67.3934 20.2744C66.9315 20.1614 66.4071 20.0799 65.8203 20.0297C65.246 19.9795 64.6155 19.9481 63.9288 19.9355C63.2422 19.923 62.5118 19.9167 61.7378 19.9167V25.8277H63.4232Z" fill="white"/>
<path d="M73.6588 25.8277C74.2956 25.7901 74.8137 25.7273 75.2132 25.6395C75.6127 25.5391 76.006 25.4387 76.393 25.3383H76.4867V26.5242H76.393C76.006 26.4238 75.6127 26.3297 75.2132 26.2419C74.8137 26.154 74.2956 26.085 73.6588 26.0348H71.9734V32.7553C72.7475 32.7553 73.4778 32.749 74.1645 32.7365C74.8512 32.7239 75.4816 32.6925 76.0559 32.6423C76.6427 32.5921 77.1671 32.5168 77.629 32.4164C78.091 32.3035 78.4842 32.1466 78.8089 31.9458L78.9025 31.9646L78.734 32.9435H71.0932V19.7285H78.734L78.9025 20.7074L78.8089 20.7262C78.4842 20.5254 78.091 20.3748 77.629 20.2744C77.1671 20.1614 76.6427 20.0799 76.0559 20.0297C75.4816 19.9795 74.8512 19.9481 74.1645 19.9355C73.4778 19.923 72.7475 19.9167 71.9734 19.9167V25.8277H73.6588Z" fill="white"/>
<path d="M85.7672 26.0348C86.5663 26.1728 87.2092 26.4364 87.6961 26.8254C88.183 27.2019 88.5701 27.6412 88.8572 28.1432C89.1569 28.6452 89.3941 29.1723 89.5689 29.7245C89.7561 30.2641 89.9497 30.7661 90.1494 31.2305C90.3617 31.6823 90.6176 32.0588 90.9172 32.36C91.2169 32.6486 91.6289 32.7929 92.1532 32.7929V33C91.4915 33 90.9422 32.9059 90.5052 32.7176C90.0807 32.5294 89.7249 32.2784 89.4378 31.9646C89.1631 31.6509 88.9384 31.2932 88.7636 30.8916C88.6013 30.49 88.4515 30.0821 88.3141 29.668C88.1768 29.2413 88.0332 28.8209 87.8834 28.4067C87.7336 27.9926 87.5401 27.6224 87.3029 27.2961C87.0781 26.9572 86.7847 26.6748 86.4227 26.4489C86.0731 26.223 85.6174 26.0913 85.0556 26.0536C84.9807 26.0536 84.9058 26.0536 84.8309 26.0536C84.7684 26.0411 84.6998 26.0348 84.6249 26.0348H82.209V32.9435H81.3288V19.7285H85.3365C85.8234 19.7285 86.3353 19.7473 86.8721 19.7849C87.409 19.8226 87.9084 19.9418 88.3703 20.1426C88.8323 20.3434 89.213 20.6634 89.5127 21.1027C89.8123 21.5419 89.9621 22.1569 89.9621 22.9475C89.9621 23.6001 89.831 24.1272 89.5689 24.5288C89.3192 24.9179 88.9883 25.2253 88.5763 25.4512C88.1768 25.6646 87.7273 25.8152 87.228 25.903C86.7286 25.9783 86.2416 26.0222 85.7672 26.0348ZM85.3365 25.8465C85.7735 25.834 86.2104 25.8089 86.6474 25.7712C87.0844 25.7336 87.4776 25.6269 87.8272 25.4512C88.1893 25.263 88.4764 24.9743 88.6887 24.5853C88.9134 24.1962 89.0258 23.6503 89.0258 22.9475C89.0258 22.2447 88.9134 21.6925 88.6887 21.2909C88.464 20.8768 88.1706 20.5693 87.8085 20.3685C87.4589 20.1677 87.0657 20.0422 86.6287 19.992C86.1917 19.9418 85.761 19.9167 85.3365 19.9167H82.209V25.8465H85.3365Z" fill="white"/>
</svg>
